<svg width="150" height="150" id="icon-baitian" viewBox="0 0 1024 1024"><path d="M512 512m-237.504 0a237.504 237.504 0 1 0 475.008 0 237.504 237.504 0 1 0-475.008 0Z"  ></path><path d="M512 244.16a32 32 0 0 1-32-32V99.2a32 32 0 0 1 64 0v113.024a32 32 0 0 1-32 31.936zM512 956.8a32 32 0 0 1-32-32v-113.024a32 32 0 0 1 64 0v113.024a32 32 0 0 1-32 32zM212.16 544H99.2a32 32 0 0 1 0-64h113.024a32 32 0 1 1-0.064 64zM924.8 544h-113.024a32 32 0 0 1 0-64h113.024a32 32 0 0 1 0 64z"  ></path><path d="M220.096 835.904a32 32 0 0 1-22.656-54.592l79.936-79.872a32 32 0 0 1 45.248 45.248l-79.936 79.872a31.872 31.872 0 0 1-22.592 9.344zM723.968 332.032a32 32 0 0 1-22.656-54.592l79.872-79.936a32 32 0 0 1 45.248 45.248l-79.872 79.936a31.872 31.872 0 0 1-22.592 9.344z"  ></path><path d="M803.904 835.904a32.128 32.128 0 0 1-22.656-9.344l-79.872-79.872a32 32 0 0 1 45.248-45.248l79.872 79.872a32 32 0 0 1-22.592 54.592zM300.032 332.032a32.128 32.128 0 0 1-22.656-9.344l-79.936-80a32 32 0 0 1 45.248-45.248l79.936 79.936a32 32 0 0 1-22.592 54.656z"  ></path></svg>