<svg width="150" height="150" id="icon-duishu" viewBox="0 0 1579 1024"><path d="M177.109333 213.333333L63.189333 610.005333c-5.546667 19.754667-8.362667 31.872-8.362666 36.309334 0 3.370667 1.066667 6.144 3.2 8.362666 2.133333 2.218667 4.693333 3.328 7.808 3.328a22.912 22.912 0 0 0 13.653333-5.674666c11.562667-9.088 23.68-23.210667 36.352-42.325334l10.026667 10.325334c-21.12 29.781333-40.576 50.56-58.368 62.336-13.098667 8.448-25.557333 12.672-37.333334 12.672a28.458667 28.458667 0 0 1-21.162666-8.661334 27.733333 27.733333 0 0 1-8.490667-20.010666c0-8.021333 3.541333-24.448 10.666667-49.322667L101.461333 304.64c7.338667-25.6 11.008-40.234667 11.008-44.032a16.256 16.256 0 0 0-6.314666-13.141333c-4.266667-3.413333-10.794667-5.162667-19.669334-5.162667a174.933333 174.933333 0 0 0-23.338666 2.304v-12.330667L177.109333 213.333333z m302.378667 276.650667c0 33.365333-8.832 66.346667-26.538667 98.986667a200.874667 200.874667 0 0 1-73.813333 77.696c-31.573333 19.114667-62.208 28.672-91.989333 28.672-30.464 0-55.296-9.728-74.496-29.184-19.2-19.413333-28.842667-44.586667-28.842667-75.52 0-32.64 9.386667-65.408 28.16-98.304a213.333333 213.333333 0 0 1 75.349333-77.994667c31.445333-19.114667 61.824-28.672 91.136-28.672 29.354667 0 53.504 9.685333 72.533334 29.013333 18.986667 19.328 28.501333 44.416 28.501333 75.306667z m-55.338667-22.997333c0-20.650667-5.077333-36.48-15.189333-47.488s-23.168-16.512-39.168-16.512c-32.64 0-62.72 23.381333-90.154667 70.186666-27.434667 46.762667-41.173333 93.269333-41.173333 139.52 0 21.077333 5.333333 37.376 16 48.810667 10.666667 11.434667 24.106667 17.152 40.32 17.152 31.36 0 60.757333-23.253333 88.192-69.802667 27.434667-46.592 41.173333-93.866667 41.173333-141.866666z m436.650667-60.672l-9.685333 34.688h-55.637334c4.224 11.989333 6.314667 23.210667 6.314667 33.664 0 29.354667-12.416 55.466667-37.333333 78.336-25.088 22.869333-59.562667 35.541333-103.338667 37.973333-23.552 7.125333-41.216 15.573333-52.992 25.344-4.437333 3.584-6.656 7.253333-6.656 11.008 0 4.437333 2.005333 8.533333 5.973333 12.16 4.010667 3.669333 14.122667 7.381333 30.336 11.178667l64.682667 15.018666c35.797333 8.405333 59.434667 18.432 70.997333 29.994667 11.349333 11.776 17.024 25.301333 17.024 40.661333 0 18.218667-6.741333 34.901333-20.181333 50.005334-13.44 15.104-33.109333 26.922667-59.008 35.498666-25.898667 8.533333-54.485333 12.8-85.845333 12.8a270.634667 270.634667 0 0 1-75.306667-9.813333c-22.656-6.570667-38.912-15.36-48.64-26.496-9.813333-11.093333-14.72-22.570667-14.72-34.346667 0-9.557333 3.2-19.498667 9.514667-29.824a84.48 84.48 0 0 1 23.850666-25.514666c5.973333-4.224 22.997333-14.208 50.986667-29.994667-10.24-7.978667-15.36-16.768-15.36-26.325333 0-8.874667 4.522667-18.346667 13.525333-28.330667 9.002667-9.984 28.074667-20.992 57.173334-32.981333-24.448-4.693333-43.818667-14.933333-58.154667-30.72-14.336-15.744-21.504-33.28-21.504-52.650667 0-31.573333 13.824-59.733333 41.472-84.650667 27.690667-24.874667 64.512-37.333333 110.506667-37.333333 16.64 0 30.336 1.706667 41.002666 4.992 10.666667 3.328 20.992 8.533333 31.018667 15.658667h90.026667z m-115.626667 52.352c0-17.792-4.992-31.786667-14.890666-41.984-9.856-10.24-22.826667-15.36-38.826667-15.36-25.088 0-45.824 12.629333-62.165333 37.845333s-24.490667 51.498667-24.490667 78.848c0 17.066667 5.205333 31.104 15.658667 41.984s23.125333 16.341333 37.973333 16.341333c11.818667 0 23.210667-3.242667 34.218667-9.685333 10.965333-6.4 20.266667-15.36 27.818666-26.666667 7.552-11.306667 13.568-25.770667 18.005334-43.306666 4.437333-17.578667 6.656-30.250667 6.656-38.016z m-159.701333 228.693333c-18.005333 8.192-31.573333 18.773333-40.832 31.658667-9.216 12.885333-13.824 25.557333-13.824 37.973333 0 14.677333 6.656 26.794667 19.968 36.352 19.114667 13.781333 47.146667 20.650667 84.053333 20.650667 31.744 0 58.88-5.376 81.493334-16.170667 22.528-10.752 33.792-24.746667 33.792-41.813333 0-8.661333-4.138667-16.896-12.501334-24.661334-8.32-7.808-24.490667-14.122667-48.469333-19.029333a3554.346667 3554.346667 0 0 1-103.68-25.002667zM1131.477333 225.962667l-107.349333 373.674666c-6.229333 21.973333-9.344 37.888-9.344 47.658667 0 8.234667 2.858667 14.506667 8.533333 18.816 5.632 4.352 18.944 7.253333 39.808 8.832l-3.328 12.373333h-171.648l4.693334-12.373333c18.176-0.426667 30.165333-1.877333 35.968-4.309333 9.344-4.010667 16.341333-9.344 20.992-16 7.338667-10.24 14.762667-28.586667 22.314666-55.04l77.354667-268.288c4.693333-16.213333 7.253333-25.6 7.68-28.032 0.64-4.437333 0.981333-8.746667 0.981333-12.970667 0-7.808-2.133333-13.909333-6.314666-18.346667a22.784 22.784 0 0 0-17.365334-6.656c-5.76 0-14.762667 1.322667-26.965333 3.968l-4.352-11.946666 112.341333-31.36h16z m292.309334 0c28.458667 0 52.394667 11.904 71.850666 35.669333 19.456 23.765333 29.184 61.312 29.184 112.64 0 44.032-7.253333 88.917333-21.674666 134.698667-14.464 45.781333-34.773333 85.418667-61.013334 118.997333-20.906667 26.453333-42.794667 45.525333-65.664 57.344a102.314667 102.314667 0 0 1-46.336 9.984c-28.885333 0-53.034667-11.904-72.533333-35.669333-19.413333-23.765333-29.141333-61.44-29.141333-113.024 0-50.858667 9.813333-101.973333 29.354666-153.301334 22.869333-60.032 52.096-105.557333 87.637334-136.661333 23.338667-20.48 49.493333-30.72 78.336-30.72z m0.341333 17.322666c-12.885333 0-25.941333 5.077333-39.168 15.189334-13.226667 10.112-26.88 31.146667-40.96 63.146666-14.122667 32-27.648 73.216-40.533333 123.690667-16.64 65.962667-25.002667 122.197333-25.002667 168.661333 0 23.082667 4.992 40.362667 15.018667 51.797334 9.984 11.477333 22.101333 17.194667 36.309333 17.194666 13.568 0 25.130667-4.437333 34.688-13.354666 25.557333-23.978667 47.445333-64.981333 65.664-123.008 29.568-94.848 44.330667-171.946667 44.330667-231.296 0-24.704-4.992-42.837333-15.018667-54.528-9.984-11.648-21.76-17.493333-35.328-17.493334z"  ></path></svg>