<svg width="150" height="150" id="icon-fenlei" viewBox="0 0 1024 1024"><path d="M257.73022933 320.7043648c-48.62772693 0-88.18847147-39.55965227-88.18847146-88.18628693 0-48.6288192 39.5618368-88.18847147 88.18847146-88.18847254 48.6255424 0 88.18628693 39.55965227 88.186288 88.18847254 0 48.62663467-39.56074453 88.18628693-88.186288 88.18628693z m0-138.72854293c-27.86933973 0-50.542256 22.67291627-50.542256 50.542256 0 27.8671552 22.67291627 50.54007147 50.542256 50.54007146 27.86824747 0 50.54007147-22.67291627 50.54007254-50.54007146 0-27.86933973-22.671824-50.542256-50.54007254-50.542256zM257.73022933 600.18847147c-48.62772693 0-88.18847147-39.55965227-88.18847146-88.18847147s39.5618368-88.18847147 88.18847146-88.18847147c48.6255424 0 88.18628693 39.55965227 88.186288 88.18847147s-39.56074453 88.18847147-88.186288 88.18847147z m0-138.73072747c-27.86933973 0-50.542256 22.67291627-50.542256 50.542256 0 27.86933973 22.67291627 50.542256 50.542256 50.542256 27.86824747 0 50.54007147-22.67291627 50.54007254-50.542256 0-27.86933973-22.671824-50.542256-50.54007254-50.542256zM257.73022933 879.67039467c-48.62772693 0-88.18847147-39.55965227-88.18847146-88.18847254 0-48.62335893 39.5618368-88.18410347 88.18847146-88.1841024 48.6255424 0 88.18628693 39.55965227 88.186288 88.1841024 0 48.6288192-39.56074453 88.18847147-88.186288 88.18847254z m0-138.72635947c-27.86933973 0-50.542256 22.6707328-50.542256 50.53788693 0 27.86933973 22.67291627 50.542256 50.542256 50.542256 27.86824747 0 50.54007147-22.67291627 50.54007254-50.542256 0-27.8671552-22.671824-50.537888-50.54007254-50.53788693zM836.2074176 252.68233813H414.57307947c-10.3950304 0-18.82310827-8.715312-18.82310827-19.11252586s8.4269856-19.11252587 18.82310827-19.11252587h421.63433813c10.3950304 0 18.82310827 8.715312 18.82310827 19.11252587s-8.4269856 19.11252587-18.82310827 19.11252586zM836.2074176 531.17914667H414.57307947c-10.3950304 0-18.82310827-8.715312-18.82310827-19.11252587s8.4269856-19.11252587 18.82310827-19.11252587h421.63433813c10.3950304 0 18.82310827 8.715312 18.82310827 19.11252587s-8.4269856 19.11252587-18.82310827 19.11252587zM836.2074176 809.6759552H414.57307947c-10.3950304 0-18.82310827-8.715312-18.82310827-19.11252587s8.4269856-19.11252587 18.82310827-19.11252586h421.63433813c10.3950304 0 18.82310827 8.715312 18.82310827 19.11252586s-8.4269856 19.11252587-18.82310827 19.11252587z"  ></path></svg>