<svg width="150" height="150" id="icon-sheji" viewBox="0 0 1024 1024"><path d="M328.32 874.474667A58.069333 58.069333 0 0 1 283.178667 896H186.176A58.176 58.176 0 0 1 128 837.824v-96.981333c0-16.682667 7.04-31.744 18.304-42.346667l-0.298667-0.298667 185.557334-185.6-181.610667-181.610666a64 64 0 0 1 0-90.517334l90.517333-90.517333a64 64 0 0 1 90.517334 0l181.546666 181.568 173.76-173.802667c24.405333-24.405333 64.853333-25.301333 89.28-0.896l88.362667 88.384c24.405333 24.405333 23.509333 64.853333-0.896 89.28l-172.842667 174.677334 183.850667 183.850666a64 64 0 0 1 0 90.517334l-90.517333 90.517333a64 64 0 0 1-90.517334 0l-182.890666-182.912L328.533333 874.666667l-0.213333-0.192zM284.416 832l-92.309333-89.237333V832h92.309333z m180.48-186.133333l180.010667-181.909334-62.656-62.72 62.72 62.677334 172.672-174.506667-86.250667-86.250667-494.08 494.272 90.24 87.253334 137.344-138.794667-9.258667-9.237333 9.28 9.216zM234.666667 325.184l25.216-25.216a32 32 0 1 1 45.248 45.248l-25.216 25.216 18.752 18.752 25.216-25.216a32 32 0 1 1 45.248 45.248l-25.216 25.216 32.32 32.32 90.325333-90.688-180.842667-180.842667-90.496 90.496L234.666667 325.184z m362.666666 362.666667l25.216-25.216a32 32 0 1 1 45.248 45.248l-25.216 25.216 18.752 18.752 25.216-25.216a32 32 0 1 1 45.248 45.248l-25.216 25.216 31.701334 31.68 90.496-90.496-180.906667-180.928-90.474667 90.538666L597.333333 687.850667z" fill="#666666" ></path></svg>