<svg width="150" height="150" id="icon-shuzhi" viewBox="0 0 1536 1024"><path d="M415.06133333 304.87893333v479.91466667h-34.13333333a27.30666667 27.30666667 0 0 1-27.30666667-27.30666667v-283.98933333a27.30666667 27.30666667 0 0 0-27.30666666-27.30666667h-63.8976A23.48373333 23.48373333 0 0 1 238.93333333 422.7072c0-13.38026667 11.19573333-23.89333333 24.576-24.576 54.8864-3.00373333 88.74666667-25.94133333 101.44426667-69.2224 3.95946667-13.38026667 15.1552-24.02986667 29.21813333-24.02986667h20.75306667zM641.70666667 478.13973333h-33.72373334a25.53173333 25.53173333 0 0 1-26.07786666-27.71626666c9.96693333-93.7984 64.58026667-142.26773333 163.70346666-145.54453334 95.98293333 5.3248 146.6368 53.248 151.9616 144.04266667 3.54986667 65.67253333-40.00426667 119.05706667-130.6624 159.88053333l-50.51733333 29.35466667c-33.45066667 18.56853333-56.5248 38.77546667-69.35893333 60.75733333-8.32853333 14.60906667 4.36906667 30.03733333 21.16266666 30.03733334h229.376v55.97866666H597.46986667c-15.29173333 0-27.71626667-12.6976-25.94133334-27.8528 8.46506667-72.9088 45.056-126.70293333 110.04586667-161.51893333l64.03413333-37.41013333c62.2592-31.9488 91.47733333-69.35893333 87.92746667-111.95733334-3.54986667-55.15946667-35.49866667-83.5584-95.98293333-85.33333333-62.12266667 0-94.208 39.04853333-95.98293334 117.41866667zM1106.87573333 563.47306667a25.3952 25.3952 0 0 1 0-50.51733334h6.82666667c58.5728-1.91146667 88.74666667-27.71626667 90.5216-77.4144-3.54986667-48.05973333-32.768-72.9088-87.92746667-74.68373333-60.48426667 0-91.47733333 33.72373333-93.3888 101.30773333h-30.85653333c-15.29173333 0-27.71626667-12.56106667-25.94133333-27.71626666 10.10346667-84.65066667 61.0304-127.93173333 152.91733333-129.70666667 92.29653333 3.6864 141.17546667 45.4656 146.6368 125.47413333 0 49.152-19.11466667 82.87573333-57.61706667 100.7616a1.91146667 1.91146667 0 0 0-1.09226666 1.77493334c0 0.8192 0.54613333 1.6384 1.36533333 1.91146666 52.4288 16.11093333 78.6432 52.4288 78.6432 108.81706667-5.46133333 95.98293333-63.0784 145.8176-173.39733333 149.36746667-37.2736 0-66.62826667-5.3248-87.92746667-15.9744-39.86773333-18.432-63.21493333-55.296-70.0416-110.72853334-1.91146667-15.29173333 10.6496-27.98933333 25.94133333-27.98933333h33.45066667c1.77493333 71.13386667 35.49866667 106.63253333 101.30773333 106.63253333 65.80906667-3.54986667 100.352-34.54293333 103.90186667-93.25226666 0-58.70933333-36.31786667-88.064-109.22666667-88.064h-4.096z"  ></path><path d="M760.08106667 291.2256c49.9712 2.73066667 90.112 16.7936 118.51093333 43.69066667 28.672 27.0336 43.55413333 65.536 46.42133333 113.18613333 3.82293333 73.86453333-45.8752 131.072-138.17173333 172.8512l-50.24426667 29.21813333c-37.6832 20.8896-59.392 42.73493333-68.67626666 64.98986667h215.31306666a41.64266667 41.64266667 0 0 1 0 83.28533333H583.2704a13.65333333 13.65333333 0 0 1-13.65333333-13.9264c1.91146667-91.47733333 41.64266667-159.3344 118.92053333-200.97706666l64.44373333-37.54666667c60.75733333-31.26613333 83.5584-64.58026667 80.55466667-98.7136v-0.27306667c-1.50186667-24.9856-9.4208-42.05226667-21.98186667-53.248-12.83413333-11.33226667-32.22186667-18.432-60.48426666-19.2512-27.98933333 0-47.104 8.73813333-59.93813334 24.30293334-13.24373333 16.24746667-21.2992 42.05226667-22.25493333 79.73546666a13.65333333 13.65333333 0 0 1-13.65333333 13.24373334H593.92a13.65333333 13.65333333 0 0 1-13.65333333-13.78986667c0.95573333-58.02666667 15.70133333-104.31146667 46.42133333-136.53333333 30.85653333-32.3584 75.63946667-48.46933333 132.16426667-50.24426667h1.2288z m373.00906666 0c48.05973333 1.77493333 86.8352 13.65333333 114.41493334 37.2736 27.8528 23.7568 42.5984 58.02666667 45.32906666 100.7616v0.95573333c0 26.624-5.18826667 49.9712-16.384 69.49546667a102.8096 102.8096 0 0 1-27.4432 30.85653333 113.73226667 113.73226667 0 0 1 42.5984 34.95253334 129.024 129.024 0 0 1 22.66453334 77.96053333v0.8192c-2.73066667 50.65386667-19.6608 90.9312-52.15573334 118.784-32.08533333 27.71626667-77.55093333 41.64266667-134.3488 43.4176h-0.54613333c-38.22933333 0-69.90506667-5.46133333-93.93493333-17.33973333-52.56533333-24.43946667-77.824-76.73173333-79.59893334-150.59626667a13.65333333 13.65333333 0 0 1 13.65333334-14.06293333h61.30346666a13.65333333 13.65333333 0 0 1 13.65333334 13.38026666c0.8192 33.5872 9.14773333 56.5248 22.9376 70.99733334 13.38026667 14.06293333 34.13333333 22.25493333 64.3072 22.25493333 30.85653333-1.6384 52.4288-9.69386667 66.62826666-22.39146667 13.9264-12.56106667 22.39146667-31.1296 24.1664-57.61706666-0.13653333-26.07786667-8.192-43.69066667-22.25493333-55.02293334-14.7456-11.8784-38.5024-18.97813333-73.45493333-18.97813333h-4.096a39.04853333 39.04853333 0 1 1 0-77.824h6.41706666c27.57973333-0.95573333 46.42133333-7.3728 58.1632-17.47626667 11.33226667-9.69386667 18.29546667-24.30293333 19.11466667-46.01173333-1.6384-20.8896-8.73813333-35.08906667-19.79733333-44.50986667-11.4688-9.69386667-29.0816-15.9744-54.61333334-16.7936-27.71626667 0-46.42133333 7.64586667-58.43626666 20.8896-12.56106667 13.65333333-20.34346667 35.08906667-21.16266667 67.1744a13.65333333 13.65333333 0 0 1-13.65333333 13.24373334h-58.70933334a13.65333333 13.65333333 0 0 1-13.65333333-13.9264c0.95573333-53.52106667 15.01866667-96.39253333 43.96373333-125.88373334 29.0816-29.62773333 71.2704-43.8272 124.24533334-44.78293333h0.68266666z m-763.35786666 12.288a13.65333333 13.65333333 0 0 1 13.65333333-12.288h21.2992c20.75306667 0 37.54666667 16.7936 37.54666667 37.54666667v425.43786666a44.37333333 44.37333333 0 0 1-88.74666667 0V459.84426667h-77.4144A37.13706667 37.13706667 0 0 1 238.93333333 422.7072v-24.576a13.65333333 13.65333333 0 0 1 14.336-13.65333333c38.22933333 1.77493333 65.67253333-4.9152 84.10453334-18.0224 17.74933333-12.83413333 29.0816-33.04106667 32.3584-63.0784z m25.3952 15.01866667a105.94986667 105.94986667 0 0 1-41.91573334 70.0416c-22.25493333 15.9744-51.74613333 23.21066667-86.97173333 23.48373333v20.48h114.688v338.60266667h34.13333333V318.53226667h-19.93386666z m597.06026666 129.97973333h31.40266667c2.73066667-29.4912 11.33226667-53.93066667 27.57973333-71.54346667 18.97813333-20.48 46.01173333-29.76426667 78.77973334-29.76426666h0.4096c29.35466667 0.95573333 53.93066667 8.192 71.68 23.21066666a89.01973333 89.01973333 0 0 1 29.4912 64.17066667v1.36533333c-0.8192 27.71626667-9.96693333 50.65386667-28.672 66.62826667-18.432 15.70133333-44.2368 22.9376-75.09333334 23.89333333h-18.8416v23.3472h15.5648c37.95626667 0 68.94933333 7.64586667 90.65813334 25.12213334 22.25493333 17.74933333 32.49493333 44.2368 32.49493333 76.45866666v0.95573334c-2.048 31.9488-12.56106667 58.1632-33.31413333 76.5952-20.48 18.432-48.87893333 27.71626667-83.69493334 29.4912h-0.68266666c-35.36213333 0-64.3072-9.55733333-84.65066667-30.85653334-17.6128-18.56853333-27.0336-44.37333333-29.62773333-75.776h-34.13333334c4.36906667 59.8016 26.624 95.57333333 63.488 112.64l0.4096 0.13653334c18.56853333 9.4208 45.4656 14.60906667 81.64693334 14.60906666 53.248-1.77493333 91.61386667-14.60906667 117.28213333-36.72746666 25.25866667-21.84533333 40.00426667-54.20373333 42.5984-99.25973334a101.85386667 101.85386667 0 0 0-17.33973333-61.57653333 97.34826667 97.34826667 0 0 0-52.97493334-34.4064l-9.69386666-2.8672v-21.57226667l8.05546666-3.6864a80.41813333 80.41813333 0 0 0 37.81973334-33.04106666 109.49973333 109.49973333 0 0 0 12.83413333-55.43253334c-2.73066667-37.00053333-15.01866667-63.488-35.90826667-81.37386666-21.2992-18.15893333-52.97493333-28.94506667-97.34826666-30.72-48.19626667 0.95573333-82.3296 13.78986667-104.72106667 36.59093333-20.34346667 20.61653333-32.768 51.2-35.49866667 93.3888z m-384.06826666 15.9744c2.73066667-46.6944 16.11093333-80.96426667 38.36586666-104.17493333 24.1664-25.3952 61.0304-40.00426667 112.64-41.7792 45.60213333 2.73066667 78.6432 15.29173333 100.7616 36.18133333 22.1184 21.02613333 35.2256 51.88266667 37.6832 94.89066667 3.14026667 57.344-34.13333333 106.9056-122.60693333 146.77333333l-51.88266667 30.03733333c-49.152 27.30666667-80.2816 60.48426667-86.69866666 100.352l-2.4576 15.70133334h263.64586666v28.672H597.46986667c5.18826667-75.09333333 39.86773333-129.024 104.31146666-163.56693334l64.17066667-37.41013333c63.35146667-32.768 99.1232-73.86453333 94.89066667-124.928-1.91146667-30.03733333-11.74186667-54.61333333-31.1296-71.95306667-19.2512-17.06666667-45.8752-25.12213333-78.09706667-26.07786666h-0.4096c-34.13333333 0-61.98613333 10.92266667-81.23733333 34.26986666-16.52053333 20.48-25.3952 48.60586667-27.71626667 83.01226667h-34.13333333z"  ></path></svg>