<svg width="150" height="150" id="icon-tuli" viewBox="0 0 1024 1024"><path d="M973.17925888 470.73659221h-172.33540665C778.9985189 329.95555555 657.63555555 220.72888889 512 220.72888889s-266.9985189 109.22666667-288.84385223 250.00770332H50.82074112c-14.56355555 0-24.27259221 9.70903666-24.27259335 24.27259336v48.54518442c0 14.56355555 9.70903666 24.27259221 24.27259335 24.27259335h174.76266667c26.69985223 133.49925888 145.63555555 235.44414777 286.41659221 235.44414777 140.78103666 0 259.71674112-101.94488889 286.41659221-237.87140778H973.17925888c14.56355555 0 24.27259221-9.70903666 24.27259335-24.27259222v-48.54518556c0-12.13629667-9.70903666-21.84533333-24.27259335-21.84533334zM512 706.18074112c-106.79940779 0-194.18074112-87.38133333-194.18074112-194.18074112s87.38133333-194.18074112 194.18074112-194.18074112 194.18074112 87.38133333 194.18074112 194.18074112-87.38133333 194.18074112-194.18074112 194.18074112z"  ></path></svg>