<svg width="150" height="150" id="icon-xunhuan" viewBox="0 0 1024 1024"><path d="M881.01464469 524.15518625c0-124.62311156-61.27957125-240.52522219-163.95482907-311.19440437v-0.02907001c-1.1628-0.81396-2.20932-1.80234-3.40119-2.61630093l-0.23256 0.37791093a28.66302469 28.66302469 0 0 0-17.32572281-5.52330187 29.30256469 29.30256469 0 0 0-28.08162562 30.43629562 28.72116469 28.72116469 0 0 0 13.34313281 22.81995376l-0.11628 0.17442093a319.53749625 319.53749625 0 0 1 141.62906437 265.58356594c0 173.69328094-139.27439438 315.17699531-311.97929437 319.36307625l36.74448656-36.74448656a28.83744469 28.83744469 0 0 0 11.01753188-21.39552375 29.27349469 29.27349469 0 0 0-28.08162563-30.43629469 28.80837469 28.80837469 0 0 0-22.38390375 9.70938094l-0.34884-0.34884-109.30321875 109.36135968 109.59391875 106.48342875 0.2907-0.2907a28.77930469 28.77930469 0 0 0 22.15134375 12.32568188 29.30256469 29.30256469 0 0 0 30.37815563-28.13976469 28.98279469 28.98279469 0 0 0-12.99429188-24.88392469l0.69768-0.72675-37.82007656-36.77355656c204.79818563-4.15701094 370.17744469-171.71652 370.17744469-377.50308656M488.94748625 205.11188l-35.75610656 34.76772656 0.69768 0.72675a28.83744469 28.83744469 0 0 0-12.99429188 24.88392469c0.63954 16.16292281 14.21523281 28.77930469 30.37815469 28.11069469a28.77930469 28.77930469 0 0 0 22.15134469-12.29661188l0.26163 0.2907 109.56484875-106.48342875-109.24507875-109.30321969-0.34884 0.29070001a28.77930469 28.77930469 0 0 0-22.41297469-9.68031094c-16.13385281 0.61047-28.69209469 14.24430281-28.08162469 30.40722469a29.01186469 29.01186469 0 0 0 11.13381188 21.45366375l38.48868656 38.5177575C289.17841062 152.34982156 125.19451156 319.26979062 125.19451156 524.18425625c0 125.7277725 62.29702125 242.87989312 166.57113 313.37465531l32.55840563-48.19806843a319.65377625 319.65377625 0 0 1-140.98952532-265.17658688c0-171.51303 135.87320344-311.57231437 305.61296438-319.07237625"  ></path></svg>