<svg t="1706452276763" class="icon" viewBox="0 0 1024 1024" version="1.1" xmlns="http://www.w3.org/2000/svg" p-id="7620" width="150" height="150"><path d="M864 766.112L768 992l-96-225.888V116.704C672 69.92 714.976 32 768 32s96 37.92 96 84.704V766.112z" fill="#E0EBFE" p-id="7621"></path><path d="M768 0c-70.592 0-128 52.352-128 116.704V128h-32c-35.296 0-64 27.008-64 60.224v197.664a32 32 0 0 0 64 0V192h32v574.112c0 4.32 0.864 8.576 2.56 12.544l96 225.856a32 32 0 0 0 58.88 0l96-225.856c1.696-3.968 2.56-8.224 2.56-12.544V116.704C896 52.384 838.592 0 768 0z m0 910.176L707.552 768h120.896L768 910.176zM832 736h-128v-32h128v32z m0-64h-128V192h128v480z m0-544h-128v-11.296C704 87.648 732.704 64 768 64s64 23.648 64 52.704V128zM416 0H160a32 32 0 0 0-32 32v960a32 32 0 0 0 32 32h256a32 32 0 0 0 32-32V32a32 32 0 0 0-32-32z m-32 960H192v-96h32a16 16 0 1 0 0-32H192v-64h32a16 16 0 1 0 0-32H192v-64h32a16 16 0 1 0 0-32H192v-64h32a16 16 0 1 0 0-32H192v-64h32a16 16 0 1 0 0-32H192v-64h32a16 16 0 1 0 0-32H192V288h32a16 16 0 1 0 0-32H192V192h32a16 16 0 1 0 0-32H192V64h192v896z" fill="#5465CF" p-id="7622"></path></svg>